name processed_emg_signals												
nRows=120												
nColumns=7												
 												
endheader												
time	RGLTMED	RRF	RADDLONG	RST	RTA	RGM						
0	0.032539266	0.019481796	0.005728789	0.003652642	0.003870034	0.015936099						
0.001	0.036304053	0.021886758	0.006526859	0.004462092	0.005976532	0.015028158						
0.002	0.04017648	0.024313469	0.00733053	0.00526863	0.008078806	0.01412403						
0.003	0.044156086	0.02676069	0.008139371	0.006071698	0.010175721	0.013223853						
0.004	0.048242299	0.029227153	0.008952945	0.006870744	0.012266159	0.012327736						
0.005	0.052434442	0.031711561	0.009770807	0.007665215	0.014349017	0.011435764						
0.006	0.056731729	0.034212591	0.010592507	0.008454563	0.016423216	0.010547993						
0.007	0.061133264	0.036728896	0.01141759	0.009238243	0.018487694	0.009664455						
0.008	0.065638042	0.039259103	0.012245598	0.010015716	0.020541414	0.008785151						
0.009	0.070244948	0.041801818	0.013076067	0.010786447	0.022583364	0.007910053						
0.01	0.074952756	0.044355625	0.013908532	0.011549908	0.024612558	0.007039105						
0.011	0.07976013	0.046919088	0.014742523	0.012305577	0.026628037	0.006172222						
0.012	0.084665623	0.049490755	0.015577569	0.013052941	0.028628875	0.005309287						
0.013	0.089667678	0.052069154	0.016413198	0.013791495	0.030614173	0.004450154						
0.014	0.094764628	0.054652801	0.017248934	0.014520742	0.032583067	0.003594646						
0.015	0.099954696	0.057240197	0.018084306	0.015240196	0.034534726	0.002742556						
0.016	0.105235996	0.059829831	0.018918837	0.015949382	0.036468353	0.001893644						
0.017	0.110606534	0.062420182	0.019752055	0.016647833	0.038383189	0.001047642						
0.018	0.116064208	0.06500972	0.020583487	0.017335097	0.040278511	0.000204248						
0.019	0.121606811	0.067596911	0.021412662	0.018010734	0.042153632	0.000636868						
0.02	0.127232028	0.070180211	0.022239113	0.018674315	0.044007905	0.00147607						
0.021	0.132937444	0.072758076	0.023062375	0.019325427	0.045840725	0.002313748						
0.022	0.138720539	0.075328959	0.023881984	0.019963669	0.047651522	0.003150326						
0.023	0.144578692	0.077891313	0.024697483	0.020588655	0.04943977	0.003986257						
0.024	0.150509185	0.080443593	0.025508419	0.021200016	0.051204983	0.004822021						
0.025	0.156509202	0.082984259	0.026314342	0.021797398	0.052946715	0.005658129						
0.026	0.162575832	0.085511773	0.02711481	0.02238046	0.054664561	0.00649512						
0.027	0.16870607	0.088024606	0.027909384	0.022948883	0.056358161	0.007333561						
0.028	0.174896825	0.090521239	0.028697635	0.023502361	0.058027191	0.008174044						
0.029	0.181144913	0.09300016	0.029479139	0.024040606	0.059671373	0.009017189						
0.03	0.187447068	0.095459874	0.030253478	0.02456335	0.061290468	0.009863641						
0.031	0.193799941	0.097898896	0.031020244	0.02507034	0.062884279	0.010714069						
0.032	0.200200104	0.100315759	0.031779036	0.025561344	0.064452648	0.011569165						
0.033	0.20664405	0.102709013	0.032529463	0.026036148	0.06599546	0.012429645						
0.034	0.213128202	0.105077227	0.033271142	0.026494556	0.067512638	0.013296246						
0.035	0.21964891	0.107418992	0.034003701	0.026936392	0.069004145	0.014169724						
0.036	0.22620246	0.109732919	0.034726774	0.027361501	0.070469982	0.015050856						
0.037	0.232785072	0.112017645	0.03544001	0.027769746	0.071910191	0.015940437						
0.038	0.239392909	0.114271834	0.036143065	0.02816101	0.073324849	0.016839278						
0.039	0.246022075	0.116494173	0.036835608	0.028535196	0.074714071	0.017748206						
0.04	0.252668624	0.118683383	0.037517319	0.028892227	0.076078008	0.018668063						
0.041	0.25932856	0.12083821	0.038187888	0.029232049	0.077416844	0.019599702						
0.042	0.265997842	0.122957434	0.038847018	0.029554623	0.078730802	0.02054399						
0.043	0.272672389	0.125039868	0.039494423	0.029859936	0.080020133	0.021501804						
0.044	0.279348083	0.127084359	0.04012983	0.030147991	0.081285125	0.022474028						
0.045	0.286020773	0.129089788	0.040752979	0.030418814	0.082526093	0.023461555						
0.046	0.292686278	0.131055073	0.041363621	0.030672451	0.083743387	0.024465283						
0.047	0.299340395	0.132979171	0.041961522	0.030908967	0.084937381	0.025486116						
0.048	0.305978898	0.134861074	0.042546457	0.031128448	0.08610848	0.02652496						
0.049	0.312597546	0.136699818	0.043118219	0.031331	0.087257114	0.027582721						
0.05	0.319192084	0.138494476	0.043676611	0.03151675	0.08838374	0.028660307						
0.051	0.325758251	0.140244165	0.04422145	0.031685844	0.089488838	0.029758625						
0.052	0.33229178	0.141948042	0.044752567	0.031838447	0.09057291	0.030878576						
0.053	0.338788407	0.143605311	0.045269805	0.031974745	0.091636481	0.032021058						
0.054	0.34524387	0.145215215	0.045773024	0.032094941	0.092680093	0.033186963						
0.055	0.351653916	0.146777045	0.046262093	0.032199259	0.09370431	0.034377176						
0.056	0.358014307	0.148290136	0.046736898	0.032287941	0.09470971	0.03559257						
0.057	0.364320818	0.14975387	0.047197338	0.032361249	0.095696889	0.036834009						
0.058	0.37056925	0.151167673	0.047643325	0.03241946	0.096666454	0.038102344						
0.059	0.376755425	0.152531021	0.048074786	0.032462872	0.097619028	0.039398413						
0.06	0.382875197	0.153843436	0.048491659	0.032491799	0.098555242	0.040723037						
0.061	0.388924452	0.155104486	0.0488939	0.032506573	0.099475737	0.042077021						
0.062	0.394899116	0.156313788	0.049281474	0.032507542	0.100381164	0.04346115						
0.063	0.400795153	0.157471009	0.049654364	0.03249507	0.101272176	0.044876191						
0.064	0.406608575	0.15857586	0.050012564	0.03246954	0.102149436	0.046322889						
0.065	0.412335443	0.159628105	0.050356081	0.032431348	0.103013606	0.047801963						
0.066	0.417971871	0.160627552	0.050684939	0.032380905	0.103865352	0.049314112						
0.067	0.42351403	0.161574059	0.050999171	0.032318639	0.104705338	0.050860006						
0.068	0.428958151	0.162467532	0.051298826	0.03224499	0.105534229	0.052440289						
0.069	0.434300531	0.163307924	0.051583966	0.032160413	0.106352686	0.054055575						
0.07	0.439537534	0.164095235	0.051854665	0.032065378	0.107161364	0.055706449						
0.071	0.444665594	0.164829512	0.052111011	0.031960364	0.107960916	0.057393465						
0.072	0.44968122	0.165510848	0.052353105	0.031845867	0.108751983	0.059117142						
0.073	0.454581001	0.166139382	0.05258106	0.031722391	0.109535201	0.060877967						
0.074	0.459361604	0.166715297	0.052795001	0.031590454	0.110311195	0.06267639						
0.075	0.46401978	0.16723882	0.052995066	0.031450583	0.111080577	0.064512825						
0.076	0.468552367	0.167710222	0.053181406	0.031303317	0.111843948	0.066387647						
0.077	0.47295629	0.168129814	0.053354182	0.031149203	0.112601894	0.068301193						
0.078	0.477228569	0.168497952	0.053513568	0.0309888	0.113354987	0.070253759						
0.079	0.481366316	0.168815027	0.053659749	0.030822673	0.114103782	0.072245599						
0.08	0.485366737	0.169081472	0.053792922	0.030651396	0.114848816	0.074276924						
0.081	0.48922714	0.169297756	0.053913293	0.030475551	0.115590608	0.076347903						
0.082	0.49294493	0.169464385	0.054021081	0.030295727	0.116329657	0.078458657						
0.083	0.496517617	0.169581897	0.054116514	0.030112518	0.117066442	0.080609262						
0.084	0.499942813	0.169650866	0.054199831	0.029926527	0.117801421	0.082799747						
0.085	0.503218236	0.169671894	0.05427128	0.029738359	0.118535027	0.085030093						
0.086	0.506341711	0.169645615	0.054331119	0.029548625	0.119267673	0.087300231						
0.087	0.509311173	0.169572691	0.054379616	0.029357941	0.119999747	0.089610042						
0.088	0.512124664	0.16945381	0.054417048	0.029166924	0.120731612	0.091959356						
0.089	0.514780342	0.169289683	0.054443698	0.028976197	0.121463605	0.094347949						
0.09	0.517276472	0.169081046	0.054459862	0.028786382	0.122196038	0.096775546						
0.091	0.519611439	0.168828655	0.054465841	0.028598106	0.122929198	0.099241817						
0.092	0.521783737	0.168533286	0.054461945	0.028411993	0.123663343	0.101746378						
0.093	0.523791982	0.168195733	0.054448491	0.028228672	0.124398705	0.10428879						
0.094	0.525634901	0.167816806	0.054425803	0.028048768	0.125135488	0.106868554						
0.095	0.527311345	0.167397328	0.054394214	0.027872906	0.125873867	0.10948512						
0.096	0.528820281	0.166938137	0.054354061	0.027701711	0.126613992	0.112137874						
0.097	0.530160796	0.16644008	0.05430569	0.027535803	0.127355981	0.114826148						
0.098	0.5313321	0.165904016	0.054249452	0.027375802	0.128099927	0.117549215						
0.099	0.532333522	0.165330809	0.054185703	0.027222322	0.128845892	0.120306286						
0.1	0.533164515	0.164721333	0.054114806	0.027075974	0.129593912	0.123096515						
0.101	0.533824654	0.164076465	0.05403713	0.026937365	0.130343992	0.125918993						
0.102	0.534313641	0.163397086	0.053953048	0.026807095	0.131096112	0.128772753						
0.103	0.534631297	0.162684082	0.053862938	0.026685757	0.131850221	0.131656765						
0.104	0.534777571	0.161938337	0.053767182	0.026573939	0.132606243	0.134569939						
0.105	0.534752537	0.161160739	0.053666169	0.02647222	0.133364074	0.137511124						
0.106	0.534556391	0.160352171	0.053560289	0.026381171	0.134123582	0.140479105						
0.107	0.534189459	0.159513518	0.053449939	0.026301355	0.134884611	0.143472609						
0.108	0.533652186	0.158645661	0.053335518	0.026233324	0.135646978	0.146490299						
0.109	0.532945148	0.157749475	0.053217428	0.02617762	0.136410473	0.149530776						
0.11	0.532069042	0.156825834	0.053096075	0.026134773	0.137174865	0.152592582						
0.111	0.53102469	0.155875605	0.052971869	0.026105303	0.137939897	0.155674197						
0.112	0.529813037	0.15489965	0.052845221	0.026089716	0.13870529	0.15877404						
0.113	0.528435153	0.153898825	0.052716546	0.026088505	0.139470742	0.16189047						
0.114	0.526892229	0.152873976	0.052586262	0.026102151	0.140235931	0.165021788						
0.115	0.525185576	0.151825947	0.052454786	0.026131117	0.141000514	0.168166233						
0.116	0.523316628	0.150755569	0.052322539	0.026175854	0.14176413	0.171321989						
0.117	0.521286936	0.149663669	0.052189945	0.026236796	0.142526399	0.174487181						
0.118	0.519098168	0.148551064	0.052057427	0.026314359	0.143286925	0.177659879						
0.119	0.516752111	0.147418562	0.05192541	0.026408945	0.144045296	0.180838097						
